<svg width="49" height="48" fill="none" xmlns="http://www.w3.org/2000/svg"><path d="M42.663 20c0 14-18.028 26-18.028 26S6.608 34 6.608 20c0-4.774 1.9-9.352 5.28-12.728A18.041 18.041 0 0124.635 2c4.781 0 9.367 1.896 12.748 5.272A17.986 17.986 0 0142.663 20z" fill="#F5DF4D" fill-opacity=".3" stroke="#FACA30" stroke-width="4" stroke-linecap="round" stroke-linejoin="round"/><path d="M24.635 26a6.005 6.005 0 006.01-6c0-3.314-2.69-6-6.01-6a6.005 6.005 0 00-6.009 6c0 3.314 2.69 6 6.01 6z" stroke="#FACA30" stroke-width="4" stroke-linecap="round" stroke-linejoin="round"/></svg>