<svg width="22" height="22" fill="none" xmlns="http://www.w3.org/2000/svg"><g clip-path="url(#clip0)"><path d="M19 0H2.5A2.5 2.5 0 000 2.5V19a2.5 2.5 0 002.5 2.5H19a2.5 2.5 0 002.5-2.5V2.5A2.5 2.5 0 0019 0z" fill="#fff"/><path d="M14.443 16.796c.433.707.996 1.227 1.993 1.227.837 0 1.372-.418 1.372-.996 0-.693-.55-.939-1.471-1.342l-.505-.216c-1.458-.621-2.427-1.4-2.427-3.044 0-1.516 1.155-2.67 2.959-2.67 1.285 0 2.208.448 2.873 1.618l-1.573 1.01c-.346-.62-.72-.865-1.3-.865-.592 0-.967.375-.967.866 0 .606.376.851 1.242 1.226l.506.217c1.716.736 2.685 1.486 2.685 3.174 0 1.819-1.429 2.815-3.347 2.815-1.877 0-3.089-.894-3.682-2.066l1.642-.954zm-7.137.175c.317.563.606 1.04 1.3 1.04.664 0 1.082-.26 1.082-1.27v-6.87h2.02v6.897c0 2.092-1.226 3.044-3.016 3.044-1.618 0-2.554-.837-3.03-1.845l1.644-.996z" fill="#151515"/></g><defs><clipPath id="clip0"><path fill="#fff" d="M0 0h21.5v21.5H0z"/></clipPath></defs></svg>