<svg width="108" height="48" fill="none" xmlns="http://www.w3.org/2000/svg"><path d="M68.676 2.442c-3.23 3.256-3.23 8.553 0 11.809a8.243 8.243 0 0011.711 0c3.23-3.256 3.23-8.553 0-11.81a8.243 8.243 0 00-11.711 0zm8.541 8.612a3.78 3.78 0 01-5.37 0 3.856 3.856 0 010-5.416 3.779 3.779 0 015.37 0 3.857 3.857 0 010 5.416z" fill="#fff"/><path d="M94.484 19.869c0-4.605-3.715-8.35-8.282-8.35h-6.024a2.269 2.269 0 00-2.257 2.275 2.254 2.254 0 002.257 2.246h6.024c2.094 0 3.797 1.718 3.797 3.83a2.269 2.269 0 002.258 2.275c1.228 0 2.227-1.022 2.227-2.276z" fill="#fff"/><path d="M74.138 28.219c4.566 0 8.28-3.746 8.28-8.35v-6.076a2.269 2.269 0 00-2.256-2.275c-1.228 0-2.227 1.02-2.227 2.275v6.075c0 2.111-1.704 3.829-3.798 3.829a2.269 2.269 0 00-2.257 2.275 2.255 2.255 0 002.258 2.247z" fill="#fff"/><path d="M8.252 28.296a3.81 3.81 0 013.308 1.93 2.277 2.277 0 003.048.82l.032-.02c1.054-.646 1.413-2.034.8-3.093a8.342 8.342 0 00-7.188-4.157C3.702 23.775 0 27.522 0 32.126c0 4.605 3.702 8.35 8.252 8.35a8.196 8.196 0 006.959-3.822 2.287 2.287 0 00-.66-3.156 2.287 2.287 0 00-3.103.696 3.76 3.76 0 01-3.196 1.761c-2.06 0-3.798-1.753-3.798-3.829 0-2.112 1.703-3.83 3.798-3.83zm18.2-2.275a2.254 2.254 0 00-2.257-2.246c-4.566 0-8.28 3.746-8.28 8.35V38.2a2.269 2.269 0 002.256 2.276c1.227 0 2.227-1.02 2.227-2.276v-6.074c0-2.112 1.704-3.83 3.798-3.83a2.268 2.268 0 002.256-2.275z" fill="#EE3831"/><path d="M33.125 23.745c-4.566 0-8.281 3.746-8.281 8.35 0 4.605 3.715 8.35 8.281 8.35h.146c1.13 0 2.81-.029 4.884-1.423 1.077-.708 1.483-1.928.983-2.978a2.386 2.386 0 00-1.483-1.23 1.925 1.925 0 00-1.584.236c-1.19.775-2.2.875-2.946.875a3.8 3.8 0 01-3.07-1.584h9.095a2.254 2.254 0 002.257-2.246c0-5.423-4.267-8.35-8.282-8.35zm0 4.521c1.057 0 2.382.426 3.156 1.554h-6.215a3.817 3.817 0 013.06-1.553zm16.933-4.46c-4.677 0-8.341 3.694-8.341 8.41 0 4.599 3.663 8.2 8.341 8.2 1.582 0 2.894-.339 4.051-1.054.426.644 1.15 1.054 1.824 1.054 1.287 0 2.257-.978 2.257-2.276v-5.923c0-4.717-3.572-8.411-8.132-8.411zm0 12.119c-2.143 0-3.887-1.664-3.887-3.708 0-2.125 1.78-3.92 3.887-3.92 2.028 0 3.678 1.758 3.678 3.92 0 2.113-1.581 3.708-3.678 3.708z" fill="#EE3831"/><path d="M68.38 26.02a2.27 2.27 0 01-2.257 2.277h-1.37v9.902a2.27 2.27 0 01-2.257 2.276c-1.227 0-2.226-1.02-2.226-2.276v-9.902h-1.4c-1.228 0-2.226-1.022-2.226-2.277 0-1.238.998-2.245 2.226-2.245h7.253a2.252 2.252 0 012.257 2.245zm23.517-2.245c-4.567 0-8.282 3.746-8.282 8.35V38.2a2.269 2.269 0 002.257 2.276c1.228 0 2.227-1.02 2.227-2.276v-6.074c0-2.112 1.704-3.83 3.798-3.83a2.269 2.269 0 002.257-2.275 2.256 2.256 0 00-2.257-2.246zm13.846.091a2.24 2.24 0 00-2.228 2.246v7.495a2.34 2.34 0 01-2.328 2.348 2.341 2.341 0 01-2.33-2.348v-7.495a2.239 2.239 0 00-2.227-2.246 2.24 2.24 0 00-2.227 2.246v7.562c.034 3.734 3.077 6.772 6.784 6.772.804 0 1.593-.14 2.328-.407v.971a2.476 2.476 0 01-2.478 2.47c-.934 0-1.786-.531-2.227-1.386a2.218 2.218 0 00-1.264-1.143 2.144 2.144 0 00-1.693.095 2.23 2.23 0 00-1.15 1.305 2.232 2.232 0 00.109 1.717c1.185 2.426 3.57 3.932 6.225 3.932 3.84 0 6.963-3.136 6.963-6.99V26.112a2.254 2.254 0 00-2.257-2.246z" fill="#EE3831"/></svg>