<svg width="33" height="32" fill="none" xmlns="http://www.w3.org/2000/svg"><path d="M2.805 2.769a9.394 9.394 0 000 13.391c3.74 3.692 9.826 3.692 13.566 0a9.394 9.394 0 000-13.391c-3.74-3.692-9.826-3.692-13.566 0zm9.894 9.766a4.445 4.445 0 01-6.221 0 4.308 4.308 0 010-6.141 4.444 4.444 0 016.22 0 4.308 4.308 0 01.001 6.14z" fill="#fff"/><path d="M32.7 22.532c0-5.222-4.304-9.47-9.593-9.47H16.13c-1.441 0-2.614 1.158-2.614 2.581 0 1.404 1.172 2.547 2.614 2.547h6.978c2.426 0 4.399 1.948 4.399 4.342 0 1.423 1.172 2.58 2.614 2.58a2.584 2.584 0 002.58-2.58z" fill="#fff"/><path d="M9.13 32c5.29 0 9.593-4.248 9.593-9.47v-6.889c0-1.422-1.172-2.58-2.614-2.58a2.583 2.583 0 00-2.58 2.58v6.888c0 2.395-1.973 4.342-4.4 4.342-1.44 0-2.613 1.158-2.613 2.581 0 1.405 1.173 2.547 2.615 2.547z" fill="#fff"/></svg>