<svg width="22" height="22" fill="none" xmlns="http://www.w3.org/2000/svg"><path d="M19.442 5.595l-7.407-4.3a1.597 1.597 0 00-1.546 0l-7.486 4.3c-.482.277-.823.799-.823 1.356v8.59c0 .558.35 1.08.832 1.358l1.978 1.123c.945.466 1.279.466 1.71.466 1.399 0 2.198-.846 2.198-2.323v-8.48c0-.12-.062-.298-.18-.298h-.944c-.12 0-.387.178-.387.297v8.481c0 .655-.592 1.306-1.698.753L3.645 15.74a.232.232 0 01-.122-.199v-8.59c0-.08.094-.162.165-.204l7.462-4.293c.07-.04.172-.04.242 0l7.37 4.292c.071.043.046.122.046.205v8.59c0 .082.031.162-.038.202l-7.406 4.296a.21.21 0 01-.211 0l-1.9-1.134c-.057-.033-.125-.045-.18-.015-.528.3-.626.34-1.121.512-.122.042-.302.116.068.324l2.486 1.47a1.561 1.561 0 001.564 0l7.372-4.297c.482-.28.71-.8.71-1.358v-8.59c0-.557-.228-1.077-.71-1.356zm-5.856 8.585c-1.97 0-2.403-.543-2.548-1.523-.016-.105-.106-.231-.213-.231h-.963c-.119 0-.215.144-.215.263 0 1.254.682 2.773 3.94 2.773 2.358 0 3.71-.916 3.71-2.538 0-1.607-1.087-2.03-3.373-2.332-2.312-.306-2.547-.46-2.547-1.001 0-.447.199-1.042 1.91-1.042 1.53 0 2.094.328 2.326 1.359.02.097.108.166.208.166h.966a.22.22 0 00.158-.066.218.218 0 00.057-.165c-.15-1.775-1.33-2.602-3.714-2.602-2.122 0-3.388.896-3.388 2.398 0 1.629 1.26 2.079 3.296 2.28 2.437.239 2.626.595 2.626 1.074 0 .833-.668 1.187-2.236 1.187z" fill="#fff"/></svg>