<svg width="22" height="22" fill="none" xmlns="http://www.w3.org/2000/svg"><g clip-path="url(#clip0)" fill="#fff"><path d="M19.012 11.858a13.071 13.071 0 00-.627-.752c.154-.178.3-.357.439-.537 1.428-1.852 1.834-3.532 1.142-4.73-.692-1.2-2.35-1.688-4.668-1.377a12.84 12.84 0 00-.748.124 12.899 12.899 0 00-.274-.732C13.386 1.691 12.134.5 10.75.5S8.114 1.691 7.224 3.854c-.097.235-.188.48-.274.732a12.89 12.89 0 00-.748-.124c-2.318-.31-3.976.178-4.668 1.377-.692 1.198-.286 2.878 1.142 4.73.138.18.285.359.44.537-.225.25-.435.501-.628.752C1.06 13.71.654 15.39 1.346 16.588c.556.964 1.735 1.468 3.38 1.468.402 0 .833-.03 1.288-.091.294-.04.594-.091.9-.154.097.289.2.568.31.835C8.114 20.809 9.366 22 10.75 22s2.636-1.191 3.526-3.354c.11-.267.213-.547.31-.836.306.064.606.116.9.155.456.061.886.091 1.288.091 1.645 0 2.824-.505 3.38-1.468.692-1.198.286-2.878-1.142-4.73zm-2.419-6.23c1.152 0 1.965.293 2.282.84.413.717.031 1.931-1.049 3.332a11.34 11.34 0 01-.324.4 20.662 20.662 0 00-2.116-1.749 20.185 20.185 0 00-.477-2.653 9.386 9.386 0 011.684-.17zm-4.17 8.645c-.567.327-1.126.62-1.673.881a24.067 24.067 0 01-3.46-2.02 24.045 24.045 0 01.018-3.984 23.969 23.969 0 013.442-1.965 23.88 23.88 0 013.442 1.965 23.916 23.916 0 01.018 3.983c-.564.397-1.163.78-1.788 1.14zm1.595.505a18.046 18.046 0 01-.305 1.52c-.467-.136-.954-.3-1.456-.494a25.516 25.516 0 001.76-1.027zm-4.775 1.026c-.502.194-.99.358-1.456.493-.118-.475-.22-.983-.305-1.52a25.597 25.597 0 001.76 1.027zm-3.27-3.675a17.51 17.51 0 01-1.118-1.006c.35-.334.726-.663 1.127-.987a25.496 25.496 0 00-.01 1.994zm1.544-4.62c.085-.502.185-.978.3-1.425.447.125.914.277 1.395.456a25.52 25.52 0 00-1.695.969zm4.771-.969c.482-.179.948-.33 1.396-.456.114.447.214.923.299 1.425a25.548 25.548 0 00-1.695-.969zm3.23 3.596c.4.324.777.653 1.127.987-.345.34-.719.676-1.118 1.007a25.362 25.362 0 00-.009-1.994zM10.75 1.76c.911 0 1.88 1.159 2.571 3.12-.834.234-1.698.545-2.571.924-.873-.38-1.737-.69-2.57-.924.69-1.961 1.659-3.12 2.57-3.12zM2.625 6.468c.317-.547 1.13-.84 2.282-.84.502 0 1.068.056 1.684.17-.21.83-.37 1.72-.477 2.654A20.658 20.658 0 003.998 10.2a11.49 11.49 0 01-.324-.4c-1.08-1.4-1.462-2.615-1.049-3.332zm2.094 10.33c-1.152 0-1.966-.292-2.282-.84-.414-.716-.031-1.93 1.049-3.331.154-.2.319-.4.495-.599a20.094 20.094 0 002.108 1.791c.102.977.262 1.912.476 2.779-.68.135-1.301.2-1.846.2zm6.031 3.942c-.929 0-1.917-1.204-2.61-3.235.847-.246 1.725-.57 2.61-.965.885.394 1.763.719 2.61.965-.693 2.03-1.681 3.235-2.61 3.235zm8.313-4.781c-.466.807-2.012 1.059-4.128.639a20.56 20.56 0 00.476-2.779 20.08 20.08 0 002.108-1.79c.176.199.341.399.495.598 1.08 1.4 1.463 2.615 1.049 3.332z"/><path d="M10.75 13.196a1.946 1.946 0 100-3.892 1.946 1.946 0 000 3.892z"/></g><defs><clipPath id="clip0"><path fill="#fff" transform="translate(0 .5)" d="M0 0h21.5v21.5H0z"/></clipPath></defs></svg>