<svg width="108" height="48" viewBox="0 0 108 48" fill="none" xmlns="http://www.w3.org/2000/svg">
<path d="M68.6756 2.44182C65.4467 5.69759 65.4467 10.9952 68.6756 14.251C71.9045 17.5067 77.1584 17.5067 80.3873 14.251C83.6163 10.9952 83.6163 5.69759 80.3873 2.44182C77.1584 -0.813942 71.9045 -0.813942 68.6756 2.44182ZM77.2173 11.0538C75.7364 12.547 73.3272 12.547 71.8464 11.0538C70.3655 9.56067 70.3655 7.13141 71.8464 5.63826C73.3272 4.1451 75.7364 4.1451 77.2166 5.63826C78.6974 7.13211 78.6974 9.56137 77.2173 11.0538Z" fill="white"/>
<path d="M94.4836 19.8686C94.4836 15.2643 90.7687 11.5186 86.2023 11.5186H80.1778C78.9337 11.5186 77.9209 12.5391 77.9209 13.7942C77.9209 15.0318 78.933 16.0398 80.1778 16.0398H86.2023C88.2965 16.0398 89.9995 17.7577 89.9995 19.8693C89.9995 21.1236 91.0117 22.1449 92.2565 22.1449C93.4846 22.1442 94.4836 21.1229 94.4836 19.8686Z" fill="white"/>
<path d="M74.1375 28.2187C78.7039 28.2187 82.4188 24.4729 82.4188 19.8685V13.7933C82.4188 12.5388 81.4067 11.5176 80.1619 11.5176C78.9345 11.5176 77.9348 12.5381 77.9348 13.7933V19.8678C77.9348 21.9794 76.231 23.6966 74.1368 23.6966C72.8927 23.6966 71.8799 24.7172 71.8799 25.9723C71.8806 27.2114 72.8927 28.2187 74.1375 28.2187Z" fill="white"/>
<path d="M8.25159 28.2964C9.61404 28.2964 10.8782 29.0294 11.5601 30.2266C12.1929 31.2737 13.5311 31.6332 14.6076 31.0454L14.6402 31.0266C15.6939 30.3802 16.0532 28.9924 15.4405 27.9327C13.9541 25.3687 11.1994 23.7764 8.25159 23.7764C3.70176 23.775 0 27.5216 0 32.1261C0 36.7306 3.70176 40.4765 8.25159 40.4765C11.0928 40.4765 13.6959 39.0454 15.2106 36.6538C15.8919 35.6011 15.6046 34.1903 14.5502 33.4978C13.5027 32.8556 12.114 33.1648 11.448 34.1938C10.7522 35.2967 9.55658 35.955 8.25159 35.955C6.19267 35.955 4.4536 34.2015 4.4536 32.1261C4.4536 30.0144 6.15736 28.2964 8.25159 28.2964Z" fill="#EE3831"/>
<path d="M26.4523 26.0211C26.4523 24.7827 25.4402 23.7754 24.1954 23.7754C19.629 23.7754 15.9141 27.5212 15.9141 32.1257V38.2003C15.9141 39.4547 16.9262 40.476 18.171 40.476C19.3984 40.476 20.3981 39.4554 20.3981 38.2003V32.1257C20.3981 30.014 22.1019 28.2968 24.1961 28.2968C25.4402 28.2968 26.4523 27.2762 26.4523 26.0211Z" fill="#EE3831"/>
<path d="M33.1251 23.7451C28.5587 23.7451 24.8438 27.491 24.8438 32.0954C24.8438 36.6999 28.5587 40.4457 33.1251 40.4457H33.1971C33.222 40.4457 33.2463 40.4457 33.2712 40.4457C34.401 40.4457 36.0806 40.4164 38.1554 39.0217C39.2319 38.3138 39.6383 37.0943 39.1385 36.0444C38.8422 35.4461 38.2869 34.9861 37.6549 34.8137C37.0962 34.6615 36.5326 34.746 36.0709 35.0496C34.8801 35.8252 33.8714 35.925 33.1251 35.925C31.8956 35.925 30.763 35.3184 30.0547 34.3411H39.1502C40.3943 34.3411 41.4072 33.3338 41.4072 32.0954C41.4065 26.6721 37.1398 23.7451 33.1251 23.7451ZM33.1251 28.2665C34.1823 28.2665 35.5066 28.6916 36.2806 29.8197H30.0658C30.7761 28.8613 31.9039 28.2665 33.1251 28.2665Z" fill="#EE3831"/>
<path d="M50.0584 23.8057C45.3812 23.8057 41.7168 27.4998 41.7168 32.2165C41.7168 36.8146 45.3805 40.4159 50.0584 40.4159C51.6403 40.4159 52.9522 40.0774 54.1091 39.3618C54.5348 40.0062 55.2597 40.4159 55.9333 40.4159C57.2203 40.4159 58.1902 39.4379 58.1902 38.1403V32.2165C58.1895 27.4998 54.6179 23.8057 50.0584 23.8057ZM50.0584 35.9246C47.915 35.9246 46.1711 34.2612 46.1711 32.2165C46.1711 30.0917 47.951 28.297 50.0584 28.297C52.0862 28.297 53.7359 30.0554 53.7359 32.2165C53.7359 34.3303 52.1547 35.9246 50.0584 35.9246Z" fill="#EE3831"/>
<path d="M68.3802 26.0202C68.3802 27.2746 67.3681 28.2965 66.1226 28.2965H64.7539V38.1987C64.7539 39.4545 63.7404 40.475 62.4963 40.475C61.2688 40.475 60.2698 39.4545 60.2698 38.1987V28.2965H58.87C57.6419 28.2965 56.6436 27.2746 56.6436 26.0202C56.6436 24.7819 57.6425 23.7754 58.87 23.7754H60.2698C63.7999 23.7754 64.7546 23.7754 64.7546 23.7754H66.1233C67.3681 23.7747 68.3802 24.7819 68.3802 26.0202Z" fill="#EE3831"/>
<path d="M91.8966 23.7754C87.3301 23.7754 83.6152 27.5212 83.6152 32.1257V38.2003C83.6152 39.4547 84.6274 40.476 85.8721 40.476C87.0996 40.476 88.0993 39.4554 88.0993 38.2003V32.1257C88.0993 30.014 89.8031 28.2968 91.8973 28.2968C93.1414 28.2968 94.1542 27.2762 94.1542 26.0211C94.1528 24.7827 93.1407 23.7754 91.8966 23.7754Z" fill="#EE3831"/>
<path d="M105.743 23.8662C104.515 23.8662 103.515 24.8735 103.515 26.1119V33.6069C103.515 34.9018 102.471 35.9552 101.187 35.9552C99.9023 35.9552 98.8576 34.9018 98.8576 33.6069V26.1119C98.8576 24.8735 97.8586 23.8662 96.6305 23.8662C95.403 23.8662 94.4033 24.8735 94.4033 26.1119V33.6739C94.4372 37.4079 97.4799 40.4458 101.187 40.4458C101.991 40.4458 102.78 40.3069 103.515 40.0395V41.0105C103.515 42.3718 102.404 43.4796 101.037 43.4796C100.103 43.4796 99.2515 42.949 98.8105 42.0939C98.5641 41.5655 98.1044 41.1495 97.5464 40.9512C96.9773 40.7488 96.3716 40.7844 95.853 41.0461C95.3068 41.31 94.8983 41.7735 94.7031 42.3508C94.5085 42.9239 94.548 43.5347 94.8118 44.068C95.997 46.4938 98.3827 48.0002 101.037 48.0002C104.877 48.0002 108 44.8645 108 41.0098V26.1119C108 24.8735 106.987 23.8662 105.743 23.8662Z" fill="#EE3831"/>
</svg>
