<svg width="22" height="22" viewBox="0 0 22 22" fill="none" xmlns="http://www.w3.org/2000/svg">
<g clip-path="url(#clip0)">
<path d="M19 0H2.5C1.11929 0 0 1.11929 0 2.5V19C0 20.3807 1.11929 21.5 2.5 21.5H19C20.3807 21.5 21.5 20.3807 21.5 19V2.5C21.5 1.11929 20.3807 0 19 0Z" fill="white"/>
<path d="M14.4427 16.7963C14.8758 17.5034 15.4392 18.0231 16.4357 18.0231C17.2728 18.0231 17.8076 17.6047 17.8076 17.0266C17.8076 16.3338 17.2582 16.0885 16.3367 15.6854L15.8317 15.4687C14.3738 14.8476 13.4052 14.0695 13.4052 12.4246C13.4052 10.9094 14.5597 9.75586 16.364 9.75586C17.6486 9.75586 18.5721 10.2029 19.2375 11.3735L17.6643 12.3836C17.3179 11.7625 16.9442 11.5178 16.364 11.5178C15.7723 11.5178 15.3972 11.8932 15.3972 12.3836C15.3972 12.9897 15.7726 13.2351 16.6394 13.6105L17.1445 13.8269C18.8611 14.563 19.8303 15.3134 19.8303 17.0007C19.8303 18.8196 18.4014 19.8162 16.4825 19.8162C14.6062 19.8162 13.394 18.922 12.8008 17.7501L14.4427 16.7963ZM7.30571 16.9713C7.62309 17.5344 7.91181 18.0105 8.60595 18.0105C9.26972 18.0105 9.68846 17.7508 9.68846 16.741V9.87121H11.7088V16.7683C11.7088 18.8603 10.4823 19.8124 8.69195 19.8124C7.07433 19.8124 6.13755 18.9753 5.66113 17.967L7.30571 16.9713Z" fill="#151515"/>
</g>
<defs>
<clipPath id="clip0">
<rect width="21.5" height="21.5" fill="white"/>
</clipPath>
</defs>
</svg>
