<svg width="33" height="32" viewBox="0 0 33 32" fill="none" xmlns="http://www.w3.org/2000/svg">
<path d="M2.80507 2.76898C-0.935023 6.46095 -0.935023 12.4683 2.80507 16.1603C6.54516 19.8523 12.6308 19.8523 16.3709 16.1603C20.111 12.4683 20.111 6.46095 16.3709 2.76898C12.6308 -0.922993 6.54516 -0.922993 2.80507 2.76898ZM12.699 12.5348C10.9837 14.228 8.19308 14.228 6.47781 12.5348C4.76253 10.8416 4.76253 8.08687 6.47781 6.39366C8.19308 4.70046 10.9837 4.70046 12.6982 6.39366C14.4135 8.08766 14.4135 10.8424 12.699 12.5348Z" fill="white"/>
<path d="M32.6995 22.5315C32.6995 17.3102 28.3964 13.0625 23.1071 13.0625H16.1289C14.6878 13.0625 13.5146 14.2198 13.5146 15.6431C13.5146 17.0466 14.687 18.1896 16.1289 18.1896H23.1071C25.5328 18.1896 27.5055 20.1377 27.5055 22.5323C27.5055 23.9548 28.6779 25.1128 30.1197 25.1128C31.5423 25.1121 32.6995 23.954 32.6995 22.5315Z" fill="white"/>
<path d="M9.13064 31.9993C14.42 31.9993 18.723 27.7516 18.723 22.5303V15.6411C18.723 14.2186 17.5507 13.0605 16.1088 13.0605C14.687 13.0605 13.5291 14.2179 13.5291 15.6411V22.5295C13.5291 24.9241 11.5556 26.8714 9.12984 26.8714C7.68881 26.8714 6.51562 28.0287 6.51562 29.452C6.51643 30.857 7.68881 31.9993 9.13064 31.9993Z" fill="white"/>
</svg>
