<svg width="22" height="22" viewBox="0 0 22 22" fill="none" xmlns="http://www.w3.org/2000/svg">
<path d="M19.442 5.59511L12.0351 1.29427C11.568 1.02821 10.9598 1.02821 10.4889 1.29427L3.0029 5.59511C2.52083 5.87243 2.17969 6.39364 2.17969 6.95113V15.5414C2.17969 16.0989 2.52973 16.6202 3.0118 16.8991L4.98964 18.0224C5.93496 18.4881 6.26905 18.4881 6.69922 18.4881C8.09891 18.4881 8.89844 17.6417 8.89844 16.1654V7.68464C8.89844 7.56488 8.83612 7.38667 8.71854 7.38667H7.77405C7.65446 7.38667 7.38672 7.56488 7.38672 7.68448V16.1652C7.38672 16.8196 6.7948 17.4708 5.68855 16.9177L3.64488 15.7398C3.57366 15.7011 3.52344 15.6234 3.52344 15.5414V6.95113C3.52344 6.87016 3.61666 6.78887 3.68838 6.74738L11.1502 2.45393C11.2199 2.41446 11.3224 2.41446 11.3919 2.45393L18.7627 6.74637C18.8333 6.78887 18.8084 6.86764 18.8084 6.95113V15.5414C18.8084 15.6234 18.8392 15.7031 18.7695 15.7426L11.3644 20.0386C11.3009 20.0767 11.2221 20.0767 11.1526 20.0386L9.25336 18.905C9.19608 18.8717 9.12805 18.8598 9.07313 18.8905C8.5447 19.19 8.44727 19.2298 7.9516 19.4016C7.82965 19.4441 7.64976 19.5179 8.02046 19.7257L10.5061 21.1961C10.7441 21.3338 11.0145 21.4053 11.2866 21.4053C11.5624 21.4053 11.8325 21.3338 12.0705 21.1961L19.4418 16.8991C19.9239 16.6182 20.1523 16.0989 20.1523 15.5414V6.95113C20.1523 6.39364 19.9239 5.87377 19.442 5.59511ZM13.5864 14.1802C11.6168 14.1802 11.183 13.6368 11.0384 12.6574C11.0216 12.5519 10.932 12.4257 10.8247 12.4257H9.86207C9.74298 12.4257 9.64724 12.5702 9.64724 12.6888C9.64724 13.9428 10.329 15.4623 13.5866 15.4623C15.9447 15.4623 17.2967 14.546 17.2967 12.9244C17.2967 11.3166 16.2105 10.8947 13.9236 10.592C11.612 10.2865 11.3772 10.1321 11.3772 9.59059C11.3772 9.14412 11.576 8.54868 13.2876 8.54868C14.817 8.54868 15.3807 8.87689 15.6127 9.90771C15.6325 10.0046 15.721 10.0742 15.8209 10.0742H16.7874C16.8469 10.0742 16.9037 10.0501 16.9453 10.0077C16.9856 9.96196 17.007 9.90469 17.0016 9.84321C16.8519 8.06812 15.6726 7.24087 13.2875 7.24087C11.1658 7.24087 9.9002 8.13682 9.9002 9.63863C9.9002 11.2676 11.1595 11.7177 13.1961 11.9191C15.6325 12.158 15.8219 12.5141 15.8219 12.9933C15.8219 13.8256 15.1538 14.1802 13.5864 14.1802Z" fill="white"/>
</svg>
