<svg width="22" height="22" viewBox="0 0 22 22" fill="none" xmlns="http://www.w3.org/2000/svg">
<g clip-path="url(#clip0)">
<path d="M19.012 11.8577C18.8186 11.607 18.6088 11.3563 18.3846 11.1065C18.5388 10.9277 18.6856 10.7485 18.8238 10.5693C20.2522 8.71724 20.6578 7.03709 19.9657 5.83851C19.2737 4.63988 17.6161 4.15105 15.2977 4.46205C15.0533 4.49484 14.8038 4.53642 14.5504 4.5858C14.4641 4.33363 14.3728 4.08937 14.2761 3.85438C13.3863 1.69128 12.1341 0.5 10.75 0.5C9.36602 0.5 8.11377 1.69128 7.224 3.85438C7.12733 4.08937 7.036 4.33363 6.94975 4.5858C6.69628 4.53646 6.44677 4.49484 6.20241 4.46205C3.88428 4.15109 2.22642 4.63988 1.53439 5.83851C0.842362 7.03713 1.24792 8.71724 2.67633 10.5693C2.81448 10.7485 2.96133 10.9277 3.11548 11.1065C2.89124 11.3563 2.68149 11.607 2.48816 11.8577C1.05976 13.7098 0.654195 15.3899 1.34623 16.5885C1.90224 17.5516 3.08139 18.0563 4.72593 18.0563C5.12817 18.0563 5.55859 18.0261 6.0142 17.965C6.30764 17.9256 6.60839 17.8737 6.91477 17.8105C7.01114 18.0996 7.11415 18.3786 7.224 18.6457C8.11377 20.8087 9.36602 22 10.75 22C12.1341 22 13.3863 20.8087 14.2761 18.6456C14.3859 18.3786 14.4889 18.0995 14.5853 17.8104C14.8917 17.8736 15.1924 17.9256 15.4859 17.9649C15.9416 18.0261 16.3718 18.0563 16.7742 18.0563C18.4185 18.0563 19.5979 17.5515 20.1539 16.5885C20.8459 15.3899 20.4404 13.7098 19.012 11.8577ZM16.5931 5.62834C17.7446 5.62834 18.5585 5.92065 18.8747 6.46835C19.2885 7.18507 18.9064 8.3994 17.8262 9.79997C17.7233 9.93342 17.6149 10.067 17.502 10.2004C16.8705 9.59962 16.1596 9.01173 15.3862 8.45147C15.2794 7.51853 15.1188 6.62704 14.9087 5.79815C15.5253 5.68436 16.0915 5.62834 16.5931 5.62834ZM12.4224 14.2731C11.8561 14.6 11.2972 14.8933 10.7504 15.1541C10.2033 14.8932 9.64426 14.6002 9.0777 14.2731C8.45265 13.9122 7.85447 13.5303 7.29014 13.1335C7.24277 12.5309 7.21715 11.9022 7.21715 11.25C7.21715 10.5194 7.24919 9.81811 7.30815 9.15031C7.81139 8.80475 8.34002 8.47117 8.88949 8.15392C9.52105 7.7893 10.1433 7.46705 10.75 7.18457C11.3568 7.46705 11.979 7.7893 12.6105 8.15392C13.1601 8.47117 13.6887 8.80475 14.1919 9.15031C14.2508 9.81811 14.2829 10.5194 14.2829 11.25C14.2829 11.9022 14.2573 12.5309 14.2099 13.1335C13.6456 13.5303 13.0474 13.9122 12.4224 14.2731ZM14.0177 14.7775C13.9333 15.3138 13.831 15.8217 13.7134 16.2977C13.2461 16.162 12.7593 15.9977 12.2572 15.8041C12.5229 15.6631 12.7881 15.5166 13.0523 15.3641C13.3812 15.1741 13.7032 14.9782 14.0177 14.7775ZM9.24277 15.8041C8.74059 15.9977 8.2539 16.1618 7.78661 16.2975C7.66907 15.8216 7.5667 15.3137 7.48229 14.7775C7.79686 14.9782 8.11881 15.1741 8.44778 15.3641C8.71191 15.5166 8.97713 15.6631 9.24277 15.8041ZM5.97276 12.1295C5.57383 11.799 5.20006 11.4623 4.85518 11.1225C5.20468 10.7892 5.58126 10.4595 5.98187 10.1363C5.96579 10.504 5.95739 10.8755 5.95739 11.25C5.95739 11.5452 5.96272 11.8384 5.97276 12.1295ZM7.51715 7.50883C7.60184 7.0069 7.70246 6.53113 7.81647 6.0842C8.26406 6.2093 8.73051 6.36114 9.21178 6.54007C8.89357 6.70615 8.57581 6.88042 8.25965 7.06296C8.00795 7.20825 7.76049 7.35711 7.51715 7.50883ZM12.2883 6.54003C12.7695 6.3611 13.236 6.20922 13.6836 6.08416C13.7976 6.53113 13.8982 7.0069 13.9829 7.50883C13.7396 7.35711 13.4921 7.20825 13.2405 7.06296C12.9242 6.88038 12.6065 6.70611 12.2883 6.54003ZM15.5182 10.1363C15.9188 10.4595 16.2954 10.7892 16.6449 11.1225C16.3 11.4623 15.9262 11.799 15.5273 12.1295C15.5374 11.8384 15.5427 11.5452 15.5427 11.25C15.5427 10.8755 15.5343 10.504 15.5182 10.1363ZM10.75 1.75977C11.6612 1.75977 12.6291 2.91888 13.321 4.87966C12.4874 5.11393 11.6233 5.42455 10.75 5.80424C9.87677 5.42455 9.01266 5.11398 8.17907 4.87966C8.87093 2.91888 9.83885 1.75977 10.75 1.75977ZM2.62535 6.46839C2.94164 5.9206 3.75515 5.62838 4.907 5.62838C5.40851 5.62838 5.97473 5.6844 6.59139 5.79824C6.3813 6.62712 6.22072 7.51862 6.11389 8.45151C5.34048 9.01177 4.6296 9.59967 3.99807 10.2005C3.8852 10.067 3.77682 9.93346 3.6739 9.80001C2.59373 8.39944 2.21156 7.18511 2.62535 6.46839ZM4.71883 16.7986C3.56732 16.7986 2.75343 16.5063 2.43718 15.9586C2.02339 15.2419 2.40556 14.0276 3.48569 12.627C3.63959 12.4274 3.80499 12.2276 3.9809 12.0282C4.60528 12.642 5.31398 13.2441 6.08882 13.8191C6.19082 14.7961 6.35098 15.7306 6.5651 16.598C5.88529 16.7328 5.26401 16.7987 4.71883 16.7986ZM10.75 20.7402C9.82117 20.7402 8.83347 19.5355 8.13926 17.5051C8.98691 17.2587 9.86464 16.9342 10.75 16.5398C11.6354 16.9342 12.5132 17.2587 13.3608 17.5051C12.6666 19.5355 11.6789 20.7402 10.75 20.7402ZM19.0629 15.9586C18.597 16.7657 17.0511 17.0177 14.9349 16.598C15.1491 15.7306 15.3092 14.7961 15.4112 13.8191C16.1861 13.2441 16.8948 12.642 17.5191 12.0282C17.695 12.2276 17.8605 12.4275 18.0144 12.627C19.0946 14.0276 19.4767 15.2419 19.0629 15.9586Z" fill="white"/>
<path d="M10.75 13.1964C11.825 13.1964 12.6964 12.325 12.6964 11.25C12.6964 10.1751 11.825 9.30371 10.75 9.30371C9.67512 9.30371 8.80371 10.1751 8.80371 11.25C8.80371 12.325 9.67512 13.1964 10.75 13.1964Z" fill="white"/>
</g>
<defs>
<clipPath id="clip0">
<rect width="21.5" height="21.5" fill="white" transform="translate(0 0.5)"/>
</clipPath>
</defs>
</svg>
